{
  "accessors": [
    {
      "bufferView": 2,
      "componentType": 5126,
      "count": 673,
      "max": [
        1.5081957578659058,
        2.802299976348877,
        0.9238791465759277
      ],
      "min": [
        -1.5081957578659058,
        -0.009583257138729095,
        -0.9238794445991516
      ],
      "type": "VEC3"
    },
    {
      "bufferView": 2,
      "byteOffset": 8076,
      "componentType": 5126,
      "count": 673,
      "max": [
        1.0,
        1.0,
        1.0
      ],
      "min": [
        -1.0,
        -1.0,
        -1.0
      ],
      "type": "VEC3"
    },
    {
      "bufferView": 1,
      "componentType": 5126,
      "count": 673,
      "max": [
        0.9803921580314636,
        0.9933128952980042
      ],
      "min": [
        0.006915146950632334,
        0.0237349271774292
      ],
      "type": "VEC2"
    },
    {
      "bufferView": 0,
      "componentType": 5125,
      "count": 1080,
      "type": "SCALAR"
    },
    {
      "bufferView": 2,
      "byteOffset": 16152,
      "componentType": 5126,
      "count": 365,
      "max": [
        0.3624570071697235,
        2.3180887699127197,
        1.004611611366272
      ],
      "min": [
        -0.3624570071697235,
        1.636351466178894,
        0.8365576863288879
      ],
      "type": "VEC3"
    },
    {
      "bufferView": 2,
      "byteOffset": 20532,
      "componentType": 5126,
      "count": 365,
      "max": [
        0.9972556829452515,
        0.9994181394577026,
        0.9928770065307617
      ],
      "min": [
        -0.9972556829452515,
        -0.9882706999778748,
        -0.11012689024209976
      ],
      "type": "VEC3"
    },
    {
      "bufferView": 1,
      "byteOffset": 5384,
      "componentType": 5126,
      "count": 365,
      "max": [
        0.6675132513046265,
        0.16672229766845703
      ],
      "min": [
        0.3227192759513855,
        0.019607901573181152
      ],
      "type": "VEC2"
    },
    {
      "bufferView": 0,
      "byteOffset": 4320,
      "componentType": 5125,
      "count": 525,
      "type": "SCALAR"
    }
  ],
  "asset": {
    "extras": {
      "author": "Bob.Ho (https://sketchfab.com/Bob.Ho)",
      "license": "CC-BY-4.0 (http://creativecommons.org/licenses/by/4.0/)",
      "source": "https://sketchfab.com/3d-models/trophy-low-poly-game-ready-23ff15bc69d44c21be3fb5a4c3731527",
      "title": "Trophy - Low poly - game ready"
    },
    "generator": "Sketchfab-12.67.0",
    "version": "2.0"
  },
  "bufferViews": [
    {
      "buffer": 0,
      "byteLength": 6420,
      "name": "floatBufferViews",
      "target": 34963
    },
    {
      "buffer": 0,
      "byteLength": 8304,
      "byteOffset": 6420,
      "byteStride": 8,
      "name": "floatBufferViews",
      "target": 34962
    },
    {
      "buffer": 0,
      "byteLength": 24912,
      "byteOffset": 14724,
      "byteStride": 12,
      "name": "floatBufferViews",
      "target": 34962
    }
  ],
  "buffers": [
    {
      "byteLength": 39636,
      "uri": "scene.bin"
    }
  ],
  "materials": [
    {
      "doubleSided": true,
      "name": "Material.001",
      "pbrMetallicRoughness": {
        "baseColorFactor": [
          1.0,
          0.36366537358421713,
          0.0,
          1.0
        ],
        "roughnessFactor": 0.1050729924788258
      }
    },
    {
      "doubleSided": true,
      "name": "Material.002",
      "pbrMetallicRoughness": {
        "roughnessFactor": 0.0321109145188455
      }
    }
  ],
  "meshes": [
    {
      "name": "Trophy_Material.001_0",
      "primitives": [
        {
          "attributes": {
            "NORMAL": 1,
            "POSITION": 0,
            "TEXCOORD_0": 2
          },
          "indices": 3,
          "material": 0,
          "mode": 4
        }
      ]
    },
    {
      "name": "Trophy_Material.002_0",
      "primitives": [
        {
          "attributes": {
            "NORMAL": 5,
            "POSITION": 4,
            "TEXCOORD_0": 6
          },
          "indices": 7,
          "material": 1,
          "mode": 4
        }
      ]
    }
  ],
  "nodes": [
    {
      "children": [
        1
      ],
      "matrix": [
        0.168481707572937,
        0.0,
        0.0,
        0.0,
        0.0,
        3.7410454195127454e-17,
        -0.168481707572937,
        0.0,
        0.0,
        0.168481707572937,
        3.7410454195127454e-17,
        0.0,
        0.0,
        0.0,
        0.0,
        1.0
      ],
      "name": "Sketchfab_model"
    },
    {
      "children": [
        2
      ],
      "matrix": [
        1.0,
        0.0,
        0.0,
        0.0,
        0.0,
        0.0,
        1.0,
        0.0,
        0.0,
        -1.0,
        0.0,
        0.0,
        0.0,
        0.0,
        0.0,
        1.0
      ],
      "name": "197e70f2055540c98f6db18f9baa4715.fbx"
    },
    {
      "children": [
        3
      ],
      "name": "RootNode"
    },
    {
      "children": [
        4,
        5
      ],
      "name": "Trophy"
    },
    {
      "mesh": 0,
      "name": "Trophy_Material.001_0"
    },
    {
      "mesh": 1,
      "name": "Trophy_Material.002_0"
    }
  ],
  "scene": 0,
  "scenes": [
    {
      "name": "Sketchfab_Scene",
      "nodes": [
        0
      ]
    }
  ]
}
