{
	"asset":{
		"generator":"Khronos glTF Blender I/O v4.2.60",
		"version":"2.0"
	},
	"scene":0,
	"scenes":[
		{
			"name":"Scene",
			"nodes":[
				0,
				1,
				2
			]
		}
	],
	"nodes":[
		{
			"mesh":0,
			"name":"Circle",
			"rotation":[
				0.002468145452439785,
				-0.7071024775505066,
				0.7071024775505066,
				0.0024681452196091413
			],
			"scale":[
				2.5063695907592773,
				2.5063695907592773,
				2.5063695907592773
			]
		},
		{
			"mesh":1,
			"name":"Circle.001",
			"rotation":[
				0.7071068286895752,
				0,
				0,
				0.7071068286895752
			],
			"scale":[
				2.5063695907592773,
				2.5063695907592773,
				2.5063695907592773
			],
			"translation":[
				0,
				0,
				0.5669801831245422
			]
		},
		{
			"name":"Empty",
			"scale":[
				1.0011463165283203,
				1.0011463165283203,
				1.0011463165283203
			]
		}
	],
	"materials":[
		{
			"doubleSided":true,
			"name":"star",
			"pbrMetallicRoughness":{
				"baseColorFactor":[
					0.8003778457641602,
					0.5625597238540649,
					0.08065831661224365,
					1
				],
				"metallicFactor":0,
				"roughnessFactor":0.5
			}
		}
	],
	"meshes":[
		{
			"name":"Circle",
			"primitives":[
				{
					"attributes":{
						"POSITION":0,
						"NORMAL":1,
						"TEXCOORD_0":2
					},
					"indices":3,
					"material":0
				}
			]
		},
		{
			"name":"Circle.001",
			"primitives":[
				{
					"attributes":{
						"POSITION":4,
						"NORMAL":5,
						"TEXCOORD_0":6
					},
					"indices":3,
					"material":0
				}
			]
		}
	],
	"accessors":[
		{
			"bufferView":0,
			"componentType":5126,
			"count":50,
			"max":[
				0.6436620354652405,
				3.630120509745538e-12,
				0.5482680201530457
			],
			"min":[
				-0.6439951062202454,
				-0.1113351583480835,
				-0.6763667464256287
			],
			"type":"VEC3"
		},
		{
			"bufferView":1,
			"componentType":5126,
			"count":50,
			"type":"VEC3"
		},
		{
			"bufferView":2,
			"componentType":5126,
			"count":50,
			"type":"VEC2"
		},
		{
			"bufferView":3,
			"componentType":5123,
			"count":84,
			"type":"SCALAR"
		},
		{
			"bufferView":4,
			"componentType":5126,
			"count":50,
			"max":[
				0.6436620354652405,
				4.1467661304750436e-08,
				0.5482680201530457
			],
			"min":[
				-0.6439951062202454,
				-0.1113351583480835,
				-0.6763667464256287
			],
			"type":"VEC3"
		},
		{
			"bufferView":5,
			"componentType":5126,
			"count":50,
			"type":"VEC3"
		},
		{
			"bufferView":6,
			"componentType":5126,
			"count":50,
			"type":"VEC2"
		}
	],
	"bufferViews":[
		{
			"buffer":0,
			"byteLength":600,
			"byteOffset":0,
			"target":34962
		},
		{
			"buffer":0,
			"byteLength":600,
			"byteOffset":600,
			"target":34962
		},
		{
			"buffer":0,
			"byteLength":400,
			"byteOffset":1200,
			"target":34962
		},
		{
			"buffer":0,
			"byteLength":168,
			"byteOffset":1600,
			"target":34963
		},
		{
			"buffer":0,
			"byteLength":600,
			"byteOffset":1768,
			"target":34962
		},
		{
			"buffer":0,
			"byteLength":600,
			"byteOffset":2368,
			"target":34962
		},
		{
			"buffer":0,
			"byteLength":400,
			"byteOffset":2968,
			"target":34962
		}
	],
	"buffers":[
		{
			"byteLength":3368,
			"uri":"star.bin"
		}
	]
}
